<?xml version="1.0" standalone="no"?>
<!DOCTYPE svg PUBLIC "-//W3C//DTD SVG 20010904//EN"
 "http://www.w3.org/TR/2001/REC-SVG-20010904/DTD/svg10.dtd">
<svg version="1.0" xmlns="http://www.w3.org/2000/svg"
 width="254.000000pt" height="254.000000pt" viewBox="0 0 254.000000 254.000000"
 preserveAspectRatio="xMidYMid meet">
<metadata>
Created by potrace 1.11, written by Peter Selinger 2001-2013
</metadata>
<g transform="translate(0.000000,254.000000) scale(0.100000,-0.100000)"
fill="#000000" stroke="none">
<path d="M1120 2532 c0 -4 -10 -8 -22 -9 -70 -1 -89 -4 -84 -11 3 -4 -8 -7
-25 -6 -16 1 -32 -2 -35 -7 -3 -5 -10 -7 -15 -4 -5 4 -9 1 -9 -4 0 -6 -3 -10
-7 -9 -18 4 -83 -15 -83 -24 0 -5 -4 -7 -8 -4 -5 3 -21 -2 -36 -10 -16 -7 -35
-14 -42 -14 -8 0 -14 -5 -14 -11 0 -5 -4 -8 -9 -4 -6 3 -20 -5 -32 -17 -12
-13 -18 -16 -14 -8 8 13 7 13 -11 0 -10 -8 -21 -18 -24 -22 -3 -3 -12 -8 -20
-10 -15 -3 -22 -7 -60 -39 -14 -11 -37 -28 -52 -37 -16 -9 -28 -20 -28 -24 0
-4 -4 -8 -9 -8 -12 0 -139 -127 -176 -176 -33 -44 -36 -48 -70 -88 -13 -17
-22 -33 -19 -38 3 -4 0 -8 -6 -8 -6 0 -8 -4 -5 -10 3 -5 3 -10 -2 -10 -9 0
-48 -72 -58 -107 -3 -13 -10 -23 -15 -23 -4 0 -11 -7 -14 -16 -3 -8 -2 -12 4
-9 5 3 1 -11 -9 -32 -27 -56 -48 -121 -55 -168 -2 -11 -4 -20 -6 -20 -1 0 -3
-9 -5 -20 -7 -37 -11 -50 -19 -64 -6 -10 -5 -12 2 -7 7 4 12 3 12 -3 0 -5 -4
-13 -10 -16 -5 -3 -10 -12 -10 -18 0 -7 4 -6 10 3 6 9 10 10 10 3 0 -6 -4 -14
-9 -17 -4 -3 -9 -69 -9 -146 -1 -77 2 -139 6 -136 4 3 7 -15 7 -40 -1 -24 2
-44 5 -44 4 0 10 -9 13 -20 3 -11 1 -18 -4 -14 -5 3 -9 0 -9 -5 0 -6 5 -11 10
-11 6 0 10 -6 9 -12 -2 -13 8 -60 18 -88 3 -8 8 -24 10 -35 2 -10 10 -30 18
-42 9 -13 13 -23 10 -23 -3 0 0 -10 7 -23 7 -12 11 -25 10 -29 -1 -5 3 -8 9
-8 5 0 7 -5 4 -10 -3 -6 -1 -10 4 -10 6 0 11 -9 11 -20 0 -11 5 -20 10 -20 6
0 9 -3 8 -7 -1 -5 10 -27 25 -50 15 -24 27 -45 27 -48 0 -7 19 -31 42 -53 10
-9 18 -20 18 -24 0 -17 115 -138 132 -138 6 0 8 -3 5 -6 -7 -8 44 -56 86 -81
15 -10 27 -21 27 -25 0 -4 5 -8 11 -8 6 0 25 -11 43 -25 18 -14 38 -25 44 -25
7 0 12 -4 12 -10 0 -5 7 -10 15 -10 8 0 15 -5 15 -11 0 -5 4 -7 10 -4 5 3 10
2 10 -4 0 -5 17 -15 38 -21 20 -7 41 -16 47 -21 5 -5 17 -9 27 -9 10 0 18 -4
18 -8 0 -4 12 -9 27 -10 15 -1 29 -5 32 -10 3 -4 13 -9 21 -10 8 -2 23 -6 33
-8 9 -2 26 -6 38 -9 11 -2 28 -6 37 -9 9 -3 37 -8 62 -11 25 -3 53 -9 64 -12
14 -4 16 -2 11 8 -6 11 -5 12 6 1 18 -17 199 -17 199 1 0 8 4 7 10 -3 8 -12
13 -13 30 -3 23 15 42 17 20 3 -9 -6 -10 -10 -3 -10 6 0 14 4 17 8 3 5 23 8
45 8 21 -1 37 2 34 7 -2 4 4 8 14 8 26 2 33 3 81 17 23 7 48 10 54 6 7 -4 8
-3 4 4 -6 11 12 17 37 13 4 0 7 3 7 9 0 5 9 10 19 10 11 0 23 5 26 10 3 6 15
10 26 10 10 0 19 5 19 11 0 6 6 9 14 6 8 -3 17 1 20 9 3 9 10 12 16 9 5 -3 10
-1 10 4 0 6 4 11 10 11 8 0 37 18 138 85 8 6 25 19 37 30 12 11 36 32 53 46
17 15 28 29 25 33 -4 3 -1 6 6 6 6 0 29 18 51 40 22 22 37 40 34 40 -3 0 5 11
18 25 39 41 53 59 53 68 0 4 7 12 15 17 8 5 11 10 5 10 -5 0 -5 4 1 8 7 4 23
28 37 54 14 26 28 44 32 40 5 -4 5 1 2 11 -4 11 -1 20 8 23 8 4 13 9 10 13 -2
4 7 29 20 56 14 26 22 51 19 56 -3 5 -1 9 4 9 10 0 46 114 45 143 0 9 4 17 8
17 5 0 9 5 9 11 0 5 -6 7 -13 3 -9 -6 -9 -5 0 7 15 19 23 78 30 222 4 90 2
121 -8 134 -11 13 -11 15 -1 9 10 -6 12 1 8 31 -2 21 -5 38 -7 38 -1 0 -3 9
-4 20 -2 11 -6 36 -10 55 -4 19 -7 43 -7 53 0 9 -3 17 -7 17 -4 0 -8 6 -9 13
0 6 -3 19 -5 27 -3 8 -8 30 -12 48 -4 17 -11 32 -16 32 -5 0 -9 9 -9 20 0 22
-20 70 -29 70 -4 0 -7 10 -8 22 -1 11 -8 25 -15 29 -7 5 -9 9 -5 9 5 0 -1 12
-12 26 -12 15 -21 33 -21 40 0 8 -5 14 -11 14 -5 0 -7 5 -4 10 3 6 -1 13 -9
16 -9 3 -13 10 -10 15 3 5 0 9 -5 9 -6 0 -11 5 -11 10 0 6 -8 18 -17 29 -10
10 -27 31 -38 45 -27 37 -158 167 -185 186 -13 8 -30 22 -39 31 -9 9 -31 24
-48 35 -18 10 -33 22 -33 26 0 4 -5 8 -10 8 -6 0 -42 18 -80 39 -37 22 -71 37
-74 34 -3 -3 -12 2 -21 10 -9 9 -23 13 -32 10 -11 -4 -14 -3 -9 5 5 8 -3 12
-23 12 -17 0 -31 4 -31 8 0 5 -6 9 -12 10 -17 1 -53 10 -53 13 0 1 -11 2 -25
3 -14 1 -31 5 -37 9 -7 5 -17 5 -23 2 -5 -3 -10 -2 -10 2 0 5 -21 9 -46 8 -25
0 -47 3 -50 6 -2 3 -55 6 -119 7 -87 1 -114 -2 -109 -11 5 -9 3 -8 -7 1 -15
14 -39 16 -39 4z"/>
</g>
</svg>
